<?xml version="1.0" encoding="UTF-8"?>
<svg width="33px" height="29px" viewBox="0 0 33 29" version="1.1" xmlns="http://www.w3.org/2000/svg" xmlns:xlink="http://www.w3.org/1999/xlink">
    <!-- Generator: Sketch 59 (86127) - https://sketch.com -->
    <title>Shape</title>
    <desc>Created with Sketch.</desc>
    <g id="Page-1" stroke="none" stroke-width="1" fill="none" fill-rule="evenodd">
        <g id="Home_loggedin-" transform="translate(-944.000000, -1113.000000)" fill="#39DDB8" fill-rule="nonzero">
            <path d="M972.05,1119.44444 L970.4,1119.44444 L970.4,1117.83333 C970.4,1115.16396 968.18381,1113 965.45,1113 L948.95,1113 C946.21619,1113 944,1115.16396 944,1117.83333 L944,1117.83333 L944,1137.16667 C944,1139.83604 946.21619,1142 948.95,1142 L972.05,1142 C974.78381,1142 977,1139.83604 977,1137.16667 L977,1124.27778 C977,1121.6084 974.78381,1119.44444 972.05,1119.44444 Z M948.95,1116.22222 L965.45,1116.22222 C966.36127,1116.22222 967.1,1116.94354 967.1,1117.83333 L967.1,1119.44444 L948.95,1119.44444 C948.03873,1119.44444 947.3,1118.72313 947.3,1117.83333 C947.3,1116.94354 948.03873,1116.22222 948.95,1116.22222 Z M973.7,1132.33333 L972.05,1132.33333 C971.13873,1132.33333 970.4,1131.61201 970.4,1130.72222 C970.4,1129.83243 971.13873,1129.11111 972.05,1129.11111 L973.7,1129.11111 L973.7,1132.33333 Z M973.7,1125.88889 L972.05,1125.88889 C969.316191,1125.88889 967.1,1128.05285 967.1,1130.72222 C967.1,1133.3916 969.316191,1135.55556 972.05,1135.55556 L973.7,1135.55556 L973.7,1137.16667 C973.7,1138.05646 972.96127,1138.77778 972.05,1138.77778 L948.95,1138.77778 C948.03873,1138.77778 947.3,1138.05646 947.3,1137.16667 L947.3,1122.39278 C947.830091,1122.57486 948.388066,1122.66748 948.95,1122.66667 L972.05,1122.66667 C972.96127,1122.66667 973.7,1123.38799 973.7,1124.27778 L973.7,1125.88889 Z" id="Shape"></path>
        </g>
    </g>
</svg>