<?xml version="1.0" encoding="UTF-8"?>
<svg width="34px" height="32px" viewBox="0 0 34 32" version="1.1" xmlns="http://www.w3.org/2000/svg" xmlns:xlink="http://www.w3.org/1999/xlink">
    <!-- Generator: Sketch 59 (86127) - https://sketch.com -->
    <title>Group 5</title>
    <desc>Created with Sketch.</desc>
    <g id="Page-1" stroke="none" stroke-width="1" fill="none" fill-rule="evenodd">
        <g id="Home_loggedin-" transform="translate(-1251.000000, -780.000000)" fill="#39DDB8" fill-rule="nonzero">
            <g id="Group-5" transform="translate(1250.000000, 774.000000)">
                <g id="okregi">
                    <path d="M5.49378256,15.4988814 L8.27747114,16.6781373 C6.84662219,20.0290754 7.67141105,23.8792091 10.4194032,26.2997961 C12.9171197,28.4999475 16.4858538,29.0645629 19.6275384,27.82908 L20.7384085,30.631603 C16.5555477,32.2765335 11.780585,31.5210787 8.41544644,28.5568455 C4.68108867,25.2674118 3.55907384,20.0298203 5.49378256,15.4988814 Z" id="Stroke-8" transform="translate(12.649594, 23.491890) rotate(33.000000) translate(-12.649594, -23.491890) "></path>
                    <path d="M3.9127853,16.164825 L6.47610132,17.7647253 C6.4018436,17.8827603 6.32963814,18.001899 6.25950601,18.122104 C5.3924519,19.6082161 4.84230163,21.2573088 4.64886294,22.9988248 C4.43769514,24.8999798 4.66531734,26.7882774 5.30127355,28.5623598 C5.72262972,29.7377234 6.31933966,30.8509202 7.07069166,31.8668822 L4.6351443,33.6538742 C3.70979211,32.4026328 2.97347327,31.0289876 2.45243247,29.5755559 C1.66323538,27.3739882 1.3802215,25.026175 1.64220783,22.667498 C1.88891896,20.4463736 2.60493678,18.3414295 3.73419149,16.4557455 C3.7926191,16.3581803 3.85215296,16.261202 3.9127853,16.164825 Z" id="Stroke-10" transform="translate(4.308950, 24.909350) rotate(-10.000000) translate(-4.308950, -24.909350) "></path>
                    <path d="M13.3975476,34.7749424 L14.0848404,31.8406986 C18.7104432,32.9156131 23.5441346,31.5484687 26.759024,28.1436643 C30.6466716,24.026451 31.1757062,18.0194659 28.4964924,13.2609786 C27.80492,12.0326935 26.8995866,10.8875941 25.7830783,9.8796539 C24.1197809,8.37809747 22.1512356,7.33246835 20.058285,6.78249296 C18.4384978,6.35685315 16.7441967,6.2280902 15.0592113,6.41461931 C14.8364505,4.41821566 14.7250701,3.42001384 14.7250701,3.42001384 C16.8137921,3.18879079 18.9139279,3.35423081 20.9183192,3.8925853 C23.4396544,4.56978444 25.8094906,5.83705606 27.8145382,7.6471305 C34.498685,13.681318 35.0245117,23.7880139 28.9625731,30.2079103 C24.9951139,34.4097414 19.0553506,36.0897234 13.3975476,34.7749424 Z" id="Stroke-14" transform="translate(23.293239, 19.265663) rotate(-30.000000) translate(-23.293239, -19.265663) "></path>
                    <path d="M27.6702448,32.3904276 L24.998967,30.9765664 C26.850146,27.5066361 26.1328574,23.2748925 23.1824119,20.6759801 L25.1863601,18.4189232 C29.1957822,21.9506396 30.1708496,27.7031854 27.6702448,32.3904276 Z" id="Stroke-16" transform="translate(26.111625, 25.404675) rotate(33.000000) translate(-26.111625, -25.404675) "></path>
                </g>
            </g>
        </g>
    </g>
</svg>