<?xml version="1.0" encoding="UTF-8"?>
<svg width="47px" height="37px" viewBox="0 0 47 37" version="1.1" xmlns="http://www.w3.org/2000/svg" xmlns:xlink="http://www.w3.org/1999/xlink">
    <!-- Generator: Sketch 59 (86127) - https://sketch.com -->
    <title>card</title>
    <desc>Created with Sketch.</desc>
    <g id="Page-1" stroke="none" stroke-width="1" fill="none" fill-rule="evenodd">
        <g id="Home_loggedin-" transform="translate(-611.000000, -1105.000000)">
            <g id="card" transform="translate(607.000000, 1101.000000)">
                <rect id="Rectangle" stroke="#39DDB8" stroke-width="3.4" x="18.7" y="20.7" width="30.199998" height="18.1999987" rx="4.79999971"></rect>
                <circle id="Oval" fill="#39DDB8" cx="35.9999988" cy="32.3999991" r="2.39999986"></circle>
                <circle id="Oval-Copy" fill="#39DDB8" cx="42.3999984" cy="32.3999991" r="2.39999986"></circle>
                <g id="wifi" transform="translate(14.939340, 15.439340) rotate(-45.000000) translate(-14.939340, -15.439340) translate(0.939340, 8.439340)" fill="#39DDB8" fill-rule="nonzero">
                    <path d="M27.7063783,5.90373294 C24.1117745,2.45155947 19.2442117,0.550252532 13.9997979,0.550252532 C8.75582161,0.550252532 3.88825881,2.45155947 0.293600295,5.90373294 C-0.118195945,6.29925726 -0.0938600448,6.91878149 0.348014273,7.2874317 C0.789943279,7.65603295 1.48201252,7.63429869 1.89386345,7.23872542 C5.07010855,4.18829306 9.36941441,2.50834267 14.0001807,2.50829372 C18.6305642,2.50834267 22.92987,4.18829306 26.1061151,7.23872542 C26.3215289,7.44559247 26.6136144,7.55025253 26.9064655,7.55025253 C27.1735041,7.55025253 27.441199,7.46321484 27.6519643,7.2874317 C28.0938386,6.91873254 28.1182292,6.29925726 27.7063783,5.90373294 Z" id="Path"></path>
                    <path d="M23.3292536,11.2012592 C20.6742311,8.53104163 17.2354943,7.06055108 13.6464298,7.06066017 C10.0565456,7.06066017 6.61775411,8.53125981 3.96355132,11.2013683 C3.53841548,11.6290591 3.54109307,12.319768 3.96956223,12.7441315 C4.3980314,13.1684951 5.08999734,13.1658223 5.51513318,12.7381315 C7.75583946,10.4839866 10.6435937,9.24253237 13.6464298,9.24247782 C16.6485008,9.24236873 19.5362551,10.4838775 21.777781,12.7382406 C21.9914419,12.9530951 22.2724249,13.0606602 22.5535173,13.0606602 C22.8317682,13.0606602 23.1102376,12.9551678 23.3234613,12.7440224 C23.7518212,12.3196043 23.7544441,11.6288954 23.3292536,11.2012592 Z" id="Path"></path>
                </g>
            </g>
        </g>
    </g>
</svg>