<?xml version="1.0" encoding="UTF-8"?>
<svg width="19px" height="34px" viewBox="0 0 19 34" version="1.1" xmlns="http://www.w3.org/2000/svg" xmlns:xlink="http://www.w3.org/1999/xlink">
    <!-- Generator: Sketch 59 (86127) - https://sketch.com -->
    <title>$</title>
    <desc>Created with Sketch.</desc>
    <g id="Page-1" stroke="none" stroke-width="1" fill="none" fill-rule="evenodd">
        <g id="Home_loggedin-" transform="translate(-950.000000, -779.000000)" fill="#39DDB8" fill-rule="nonzero">
            <path d="M968.348546,801.234 C968.348546,803.047342 967.719552,804.577327 966.461546,805.824 C965.203539,807.070673 963.509223,807.852665 961.378546,808.17 L961.378546,810.312 C961.378546,810.833336 961.219881,811.258332 960.902546,811.587 C960.585211,811.915668 960.165882,812.08 959.644546,812.08 C959.12321,812.08 958.703881,811.915668 958.386546,811.587 C958.069211,811.258332 957.910546,810.833336 957.910546,810.312 L957.910546,808.238 C956.618539,808.124666 955.360552,807.852669 954.136546,807.422 C953.04854,807.039183 952.094869,806.548916 951.27551,805.951186 L950.974546,805.722 C950.679878,805.517999 950.47588,805.291335 950.362546,805.042 C950.249212,804.792665 950.192546,804.486668 950.192546,804.124 C950.192546,803.647998 950.334211,803.228668 950.617546,802.866 C950.90088,802.503332 951.223877,802.322 951.586546,802.322 C951.813213,802.322 952.022878,802.361666 952.215546,802.441 C952.408213,802.520334 952.663211,802.650666 952.980546,802.832 C954.023218,803.512003 955.048874,804.010665 956.057546,804.328 C957.066217,804.645335 958.125873,804.804 959.236546,804.804 C960.75522,804.804 961.928208,804.509336 962.755546,803.92 C963.582883,803.330664 963.996546,802.480672 963.996546,801.37 C963.996546,800.712663 963.769881,800.180002 963.316546,799.772 C962.86321,799.363998 962.296549,799.041001 961.616546,798.803 C961.004543,798.588799 960.17223,798.342471 959.119587,798.06401 L958.760546,797.97 C957.060537,797.539331 955.677884,797.103002 954.612546,796.661 C953.547207,796.218998 952.629216,795.544671 951.858546,794.638 C951.087875,793.731329 950.702546,792.507341 950.702546,790.966 C950.702546,789.129991 951.359872,787.566006 952.674546,786.274 C953.989219,784.981994 955.711868,784.177335 957.842546,783.86 L957.842546,781.718 C957.842546,781.196664 958.001211,780.771668 958.318546,780.443 C958.635881,780.114332 959.05521,779.95 959.576546,779.95 C960.097882,779.95 960.517211,780.114332 960.834546,780.443 C961.151881,780.771668 961.310546,781.196664 961.310546,781.718 L961.310546,783.826 C963.456806,784.102251 965.324134,784.846658 966.912576,786.059241 L967.226546,786.308 C967.770548,786.716002 968.042546,787.248663 968.042546,787.906 C968.042546,788.382002 967.90088,788.801332 967.617546,789.164 C967.334211,789.526668 966.999881,789.708 966.614546,789.708 C966.410545,789.708 966.212213,789.674 966.019546,789.606 C965.826878,789.538 965.571881,789.402001 965.254546,789.198 C964.325208,788.540663 963.446883,788.047668 962.619546,787.719 C961.792208,787.390332 960.811885,787.226 959.678546,787.226 C958.273205,787.226 957.151217,787.537664 956.312546,788.161 C955.473875,788.784336 955.054546,789.639995 955.054546,790.728 C955.054546,791.476004 955.292543,792.082331 955.768546,792.547 C956.244548,793.011669 956.845209,793.368665 957.570546,793.618 L958.037026,793.77168 C958.700706,793.982027 959.531207,794.214132 960.528546,794.468 C962.183221,794.876002 963.531874,795.295331 964.574546,795.726 C965.617218,796.156669 966.506875,796.808329 967.243546,797.681 C967.980216,798.553671 968.348546,799.737993 968.348546,801.234 Z" id="$"></path>
        </g>
    </g>
</svg>