<?xml version="1.0" encoding="utf-8"?>
<!-- Generator: Adobe Illustrator 21.1.0, SVG Export Plug-In . SVG Version: 6.00 Build 0)  -->
<svg version="1.1" id="logo-svg" xmlns="http://www.w3.org/2000/svg" xmlns:xlink="http://www.w3.org/1999/xlink" x="0px" y="0px"
     viewBox="0 0 137.5 144" style="enable-background:new 0 0 137.5 144;" xml:space="preserve">
<path fill="white" d="M123.2,71.1c0-16.1-7.9-31.1-21.3-40.1l-0.2-0.1c-1.2-0.8-2.5-1.6-3.8-2.3l-0.3-0.2c-0.5-0.3-1-0.5-1.7-0.8l-0.4-0.2
	c-0.5-0.3-1.1-0.5-1.6-0.7l-0.3-0.1l-0.2-0.1l-0.7-0.2v6.3l0.3,0.1c14.9,7.1,24.5,22.2,24.5,38.6c0,20.9-15.6,39.1-36.3,42.2
	c-0.2,0-0.4,0.1-0.6,0.1l-0.8,0.1c-0.2,0-0.5,0.1-0.7,0.1c-1.5,0.1-3,0.2-4.4,0.2c-0.8,0-1.7,0-2.9-0.1c-2.8-0.2-5.5-0.6-8.2-1.4
	l-0.6-0.2v5.9l0.4,0.1c3.7,0.9,7.5,1.3,11.3,1.3c2,0,3.9-0.1,5.8-0.4v6.7c-1.9,0.2-3.8,0.3-5.7,0.3c-22.5,0-42.4-13.5-50.8-34.3
	l-0.1-0.2c-0.3-0.7-0.5-1.4-0.8-2.1L22.9,89c-0.2-0.6-0.4-1.2-0.6-1.7c-0.1-0.3-0.2-0.6-0.2-0.9L22,86.1c-0.1-0.4-0.2-0.9-0.4-1.3
	c-0.1-0.5-0.3-1.1-0.4-1.6l-0.1-0.3c0-0.2-0.1-0.4-0.1-0.6c-0.1-0.7-0.3-1.5-0.4-2.2l-0.1-0.4c-0.3-1.8-0.5-3.7-0.6-5.4h6.4
	c0.8,13,6.8,25.2,16.7,33.8l0.2,0.1c0.4,0.3,0.8,0.7,1.2,1l0.4,0.3c0.5,0.4,1.1,0.8,1.6,1.2l0.3,0.2c0.2,0.2,0.5,0.4,0.7,0.5
	c0.2,0.1,0.4,0.3,0.7,0.4c0.4,0.3,0.8,0.5,1.2,0.8l0.5,0.3c2.7,1.6,5.6,3,8.5,4l0.7,0.2V111l-0.3-0.1C42.5,104.4,32,88.9,32,71.4
	c0-11.9,5-23,13.2-30.9l4.2,4.2C42.7,51.2,38.6,59.7,38,69c0,0.9,0,1.7,0,2.4c0,0.7,0,1.5,0.1,2.4c0.6,9.8,5.1,18.7,12.5,25.2
	l0.8,0.7v-7.9v-0.2l-0.1-0.1c-4.2-4.9-6.7-10.9-7.4-17.3l4.5,0.1l0,0.1c1.1,10.5,8.6,19.5,18.8,22.5c1.7,0.5,3.4,0.8,5.1,1H73v-5
	v-0.8v-1.8V88v-1.1v-4.7l-0.6-0.1c-5-1.1-8.6-5.6-8.6-10.7c0-5.1,3.6-9.6,8.6-10.7l0.4-0.1v-5.8l-0.6,0.1
	c-7.1,1.1-12.6,6.6-13.7,13.6h-4.2c1.2-8.6,7.9-15.8,16.8-17.4c0.7-0.1,1.2-0.2,1.8-0.3c0.7-0.1,1.4-0.1,2.1-0.1
	c2.7,0,5.2,0.5,7.7,1.5v4.4c-1.1-0.6-2.2-1.1-3.5-1.3l-0.3-0.1c-0.4-0.1-0.7-0.2-1.1-0.2l-0.9-0.1v5.8l0.4,0.1c4,0.9,7.1,4,8.2,7.8
	h-0.6H82h-0.1c-1.2-2.8-3.9-4.8-7.1-4.8c-4.3,0-7.7,3.5-7.7,7.7c0,4.3,3.5,7.7,7.7,7.7c3.2,0,6-2,7.1-4.8h3.5
	c-1.1,3.8-4.2,6.9-8.2,7.8l-0.4,0.1V88l0.9-0.1c0.3-0.1,0.7-0.1,1-0.2l0.3-0.1c7.3-1.9,12.5-8.6,12.5-16.1c0-3.1-0.8-6.1-2.4-8.7
	v-6.3l0,0v-7.4L88.9,49c-1.7-1.1-3.6-2-5.6-2.7s-4.1-1.1-6.2-1.3h-0.3c-0.7-0.1-1.3-0.1-2-0.1h-0.4c-0.5,0-1,0-1.6,0.1v-2
	c0,0,0-1.7,0-2.7c0-0.3,0-0.8,0-0.8v-4.9l-0.9,0.1c-1.4,0.1-2.8,0.3-4.2,0.6l-0.6,0.1c-4.7,1-9.2,2.9-13.1,5.6l-0.1,0.1l-4.2-4.3
	c3.4-2.5,7.2-4.5,11.3-5.9l0.2-0.1c0.5-0.2,0.9-0.3,1.4-0.4l0.7-0.2c0.3-0.1,0.7-0.2,1-0.3c0.6-0.1,1.2-0.3,1.8-0.4h0.2
	c0.6-0.1,1.2-0.2,1.8-0.3h0.3c0.6-0.1,1.2-0.2,1.9-0.2h0.1c1.5-0.2,2.9-0.2,4.4-0.2c2.8,0,5.5,0.3,8.2,0.8v6v0.2c0,0-0.1,0-0.1,0
	l-0.4-0.1c-0.2,0-0.4-0.1-0.5-0.1c-0.6-0.1-1.1-0.2-1.7-0.3h-0.2c-0.5-0.1-1-0.1-1.6-0.2h-0.3c-0.3,0-0.6,0-1-0.1h-0.5v5.8h0.5
	c16,1.3,28.6,14.9,28.6,30.9c0,17.1-13.9,31-31,31c-6.2-0.3-12.2-2.1-17.4-5.6L57,96.8c-0.3-0.2-0.6-0.4-0.9-0.6l-0.8-0.6v7l0.2,0.1
	c5,3.1,10.7,4.9,16.5,5.3h0.2c0.9,0.1,1.7,0.1,2.5,0.1c1.3,0,2.5-0.1,3.7-0.2c0.3,0,0.6-0.1,0.8-0.1l0.5-0.1c0.1,0,0.3,0,0.4-0.1
	c17.8-2.7,31.2-18.4,31.2-36.4c0-7.9-2.5-15.5-7.2-21.8l-0.3-0.4c-0.5-0.6-1-1.2-1.5-1.9l-0.2-0.2c-0.1-0.1-0.2-0.3-0.3-0.4
	c-0.2-0.3-0.5-0.5-0.7-0.7l-0.1-0.1c-0.3-0.3-0.6-0.6-0.9-0.9l-0.2-0.2c-0.2-0.2-0.4-0.4-0.6-0.5c-0.5-0.5-1-0.9-1.6-1.3
	c-0.2-0.1-0.3-0.3-0.5-0.4l-0.1-0.1c-0.5-0.4-0.9-0.7-1.4-1l-0.2-0.1c-0.1-0.1-0.2-0.1-0.3-0.2c-0.6-0.4-1.3-0.8-1.9-1.2
	c-0.2-0.1-0.3-0.2-0.5-0.3c-0.6-0.4-1.2-0.7-1.9-1l-0.3-0.1c-0.6-0.3-1.2-0.6-1.9-0.9v-6.4v-0.8v-4.9v-0.5L88,24.7
	c-0.8-0.2-1.7-0.4-2.5-0.6L85,24c-0.4-0.1-0.8-0.2-1.2-0.2c-0.3-0.1-0.6-0.1-1-0.2c-0.3-0.1-0.7-0.1-1-0.2c-0.6-0.1-1.2-0.2-1.9-0.2
	l-0.8-0.1c-0.5,0-0.9-0.1-1.4-0.1c-0.3,0-0.6,0-0.9,0c-0.5,0-1.1,0-1.6,0h-0.4c-1,0-2.1,0-3.1,0.1h-0.1c-2.8,0.2-5.6,0.6-8.4,1.3
	h0.1L63,24.5v-6.6V12v-0.1l-0.9,0.2c-28,5.8-48.3,30.7-48.3,59.3c0,33.4,27.2,60.6,60.6,60.6c3.8,0,7.6-0.4,11.4-1.1l0.4-0.1V125
	v-6.8C107.4,113,123.2,93.8,123.2,71.1z M74.8,74.3c-1.6,0-2.9-1.3-2.9-2.9c0-1.6,1.3-2.9,2.9-2.9c1.6,0,2.9,1.3,2.9,2.9
	C77.7,73,76.4,74.3,74.8,74.3z M67,86.1v4.4c-0.2-0.1-0.4-0.2-0.7-0.3L65.9,90c-6.3-2.9-10.7-8.9-11.7-15.7h4.2
	C59.4,79.3,62.6,83.7,67,86.1z M65.1,41.8c0.3-0.1,0.7-0.2,1-0.3l0.4-0.1c0.2-0.1,0.3-0.1,0.5-0.1v4.9c-1,0.3-1.9,0.6-2.8,1.1
	c-0.5,0.2-1,0.5-1.5,0.7L62.6,48c-0.5,0.3-1,0.5-1.4,0.8c-1.4,0.8-2.7,1.8-4,2.9c-4.9,4.4-8,10.4-8.7,16.8h-4.6
	c1.1-12.1,9.3-22.6,21-26.6L65.1,41.8z M29.3,40.8c0.4-0.6,0.9-1.2,1.4-1.9l0.2-0.3c0.4-0.6,0.9-1.2,1.4-1.7l0.2-0.2
	c0.5-0.6,1.1-1.3,1.6-1.9l0.3-0.3c0.4-0.5,0.9-0.9,1.3-1.4c0.2-0.2,0.3-0.3,0.5-0.5l0.1-0.1c0.4-0.4,0.8-0.7,1.1-1.1l0.1-0.1
	c0.2-0.2,0.4-0.3,0.5-0.5c0.4-0.4,0.9-0.8,1.3-1.1l0.6-0.5c0.5-0.4,1.1-0.9,1.6-1.3c0.2-0.2,0.4-0.3,0.6-0.5l0.2-0.1
	c0.4-0.3,0.7-0.5,1.1-0.8c0.3-0.2,0.6-0.4,0.9-0.6c0.4-0.2,0.8-0.5,1.1-0.7l0.2-0.1c0.2-0.1,0.4-0.3,0.7-0.4
	c0.6-0.4,1.3-0.7,1.9-1.1c0.2-0.1,0.3-0.2,0.5-0.3l0.3-0.2c0.4-0.2,0.9-0.5,1.3-0.7c0.3-0.1,0.6-0.3,1-0.5c0.4-0.2,0.8-0.4,1.3-0.6
	c0.3-0.1,0.6-0.3,0.9-0.4c0.5-0.2,1-0.4,1.5-0.6l0.3-0.1c0.1-0.1,0.3-0.1,0.4-0.2c0.5-0.2,0.9-0.3,1.4-0.5l0.2-0.1v6.9
	c-17.6,6.8-29.7,23.3-30.9,42.1h-6.5C20.4,58.6,23.6,49.1,29.3,40.8L29.3,40.8z"/>
</svg>
