<?xml version="1.0" encoding="UTF-8"?>
<svg width="33px" height="32px" viewBox="0 0 33 32" version="1.1" xmlns="http://www.w3.org/2000/svg" xmlns:xlink="http://www.w3.org/1999/xlink">
    <!-- Generator: Sketch 59 (86127) - https://sketch.com -->
    <title>Group 7</title>
    <desc>Created with Sketch.</desc>
    <g id="Page-1" stroke="none" stroke-width="1" fill="none" fill-rule="evenodd">
        <g id="Home_loggedin-" transform="translate(-625.000000, -781.000000)" fill="#39DDB8">
            <g id="Group-7" transform="translate(625.000000, 781.000000)">
                <path d="M9,21.75 C9,25.2285 13.53,28.5 19.5,28.5 C25.47,28.5 30,25.2285 30,21.75 C30,20.2215 29.1255,18.732 27.6375,17.544 L28.6965,14.6115 C31.344,16.392 33,18.9315 33,21.75 C33,27.135 26.9565,31.5 19.5,31.5 C12.0435,31.5 6,27.135 6,21.75 C6,21.324 6.0375,20.9055 6.111,20.4945 L9,21.75 Z" id="Fill-1"></path>
                <path d="M25.68885,7.30755 C28.34085,9.22455 29.99985,11.96205 29.99985,14.99955 C29.99985,20.79855 23.95635,25.49955 16.49985,25.49955 C9.04485,25.49955 2.99985,20.79855 2.99985,14.99955 L5.99985,14.99955 C5.99985,18.95355 10.55985,22.49955 16.49985,22.49955 C22.43985,22.49955 26.99985,18.95355 26.99985,14.99955 C26.99985,13.40205 26.25435,11.86905 24.97485,10.61205 L25.68885,7.30755 Z" id="Fill-3"></path>
                <path d="M13.5,16.5 C19.47,16.5 24,13.2285 24,9.75 C24,6.2715 19.47,3 13.5,3 C7.53,3 3,6.2715 3,9.75 C3,13.2285 7.53,16.5 13.5,16.5 M13.5,19.5 C6.0435,19.5 0,15.135 0,9.75 C0,4.365 6.0435,0 13.5,0 C20.9565,0 27,4.365 27,9.75 C27,15.135 20.9565,19.5 13.5,19.5" id="Fill-5"></path>
            </g>
        </g>
    </g>
</svg>