<?xml version="1.0" encoding="UTF-8"?>
<svg width="35px" height="25px" viewBox="0 0 35 25" version="1.1" xmlns="http://www.w3.org/2000/svg" xmlns:xlink="http://www.w3.org/1999/xlink">
    <!-- Generator: Sketch 59 (86127) - https://sketch.com -->
    <title>Group 5</title>
    <desc>Created with Sketch.</desc>
    <g id="Page-1" stroke="none" stroke-width="1" fill="none" fill-rule="evenodd">
        <g id="Home_loggedin-" transform="translate(-1252.000000, -1117.000000)">
            <g id="Group-5" transform="translate(1252.000000, 1117.000000)">
                <g id="Group-2-Copy" transform="translate(5.500000, 1.000000)">
                    <path d="M22.0227239,21.8784063 C20.3450509,15.1870754 17.0577804,12.032719 11.9903059,11.9999687 C6.9285016,11.967255 3.646712,15.116068 1.97149017,21.8797958 C1.90510069,22.1478364 2.06857365,22.4189462 2.3366196,22.4853351 C2.37594691,22.4950756 2.41631234,22.5 2.45682795,22.5 L21.5377286,22.5 C21.8138765,22.4999957 22.0377348,22.276136 22.0377348,22 C22.0377348,21.9590066 22.0326933,21.9181689 22.0227239,21.8784063 Z" id="Path" stroke="#39DDB8" stroke-width="3"></path>
                    <circle id="Oval" fill="#39DDB8" cx="12" cy="4.5" r="4.5"></circle>
                </g>
                <g id="Group-2-Copy-2" transform="translate(21.500000, 0.000000)" fill="#39DDB8">
                    <path d="M12.9453784,12.3474547 C11.9737521,9.53248489 9.90862594,8.125 6.75,8.125 C3.59137908,8.125 1.52625448,9.53248042 0.554626221,12.3474413 C0.194224594,13.3915637 0.748495913,14.5301524 1.79262028,14.8905485 C2.00255293,14.9630101 2.22308856,15 2.44517503,15 L11.0548416,15 C12.1594035,14.9999862 13.0548278,14.1045619 13.0548278,13 C13.0548278,12.7779168 13.0178386,12.5573844 12.9453784,12.3474547 Z" id="Path"></path>
                    <ellipse id="Oval" cx="7.05681818" cy="3.4375" rx="3.375" ry="3.4375"></ellipse>
                </g>
                <g id="Group-2-Copy-3" fill="#39DDB8">
                    <path d="M12.6901367,12.2198993 C11.5337243,9.48996642 9.5536787,8.125 6.75,8.125 C3.94631952,8.125 1.96627323,9.48996815 0.80986113,12.2199044 C0.379030767,13.2369834 0.854270908,14.4107491 1.87134682,14.8415866 C2.11813882,14.9461287 2.38342593,15 2.65144709,15 L10.8485595,15 C11.953124,14.9999909 12.8485504,14.1045645 12.8485504,13 C12.8485504,12.7319786 12.794679,12.4666914 12.6901367,12.2198993 Z" id="Path"></path>
                    <ellipse id="Oval" cx="7.05681818" cy="3.4375" rx="3.375" ry="3.4375"></ellipse>
                </g>
            </g>
        </g>
    </g>
</svg>